<svg width="215" height="58" viewBox="0 0 215 58" fill="none" xmlns="http://www.w3.org/2000/svg">
<path d="M13.1942 9.57C13.1942 8.60666 12.8825 7.81333 12.2592 7.19C11.6358 6.51 10.8425 6.17 9.87916 6.17C8.91583 6.17 8.12249 6.48166 7.49916 7.105C6.93249 7.72833 6.64916 8.55 6.64916 9.57V27.675C6.64916 29.6017 7.47083 30.565 9.11416 30.565C10.8708 30.565 12.2308 29.6867 13.1942 27.93V9.57ZM13.1942 48.84V34.22C11.6075 35.6933 9.73749 36.43 7.58416 36.43C2.71083 36.43 0.27416 33.54 0.27416 27.76V9.91C0.27416 7.07666 1.15249 4.86666 2.90916 3.28C4.66583 1.69333 7.04583 0.899998 10.0492 0.899998C13.0525 0.899998 15.3758 1.63667 17.0192 3.11C18.7192 4.58333 19.5692 6.73666 19.5692 9.57V49.435C19.5692 55.045 16.3958 57.85 10.0492 57.85C7.10249 57.85 4.72249 57.2267 2.90916 55.98C1.15249 54.6767 0.27416 52.8917 0.27416 50.625V43.655C0.27416 42.6917 0.95416 42.04 2.31416 41.7C2.99416 41.4733 3.70249 41.36 4.43916 41.36C5.23249 41.36 5.99749 41.445 6.73416 41.615C6.56416 42.8617 6.47916 44.1933 6.47916 45.61V48.415C6.47916 51.0783 7.58416 52.41 9.79416 52.41C12.0608 52.41 13.1942 51.22 13.1942 48.84ZM36.4795 1.495C38.1795 1.495 39.0295 2.09 39.0295 3.28V51.9H39.1145L43.5345 51.475C43.8178 52.9483 43.9595 54.2517 43.9595 55.385C43.9595 56.4617 43.5912 57 42.8545 57H29.2545L24.8345 57.425C24.5512 55.9517 24.4095 54.6767 24.4095 53.6C24.4095 52.4667 24.7778 51.9 25.5145 51.9H32.6545V7.7L30.2745 8.125C28.2912 8.465 26.6762 9.06 25.4295 9.91C24.6362 9.00333 24.0978 7.67166 23.8145 5.915C23.8145 5.745 23.8145 5.60333 23.8145 5.49C23.8145 4.86666 24.1545 4.47 24.8345 4.3L35.6295 1.58C35.9128 1.52333 36.1962 1.495 36.4795 1.495ZM58.4766 1.495C60.1766 1.495 61.0266 2.09 61.0266 3.28V51.9H61.1116L65.5316 51.475C65.8149 52.9483 65.9566 54.2517 65.9566 55.385C65.9566 56.4617 65.5882 57 64.8516 57H51.2516L46.8316 57.425C46.5482 55.9517 46.4066 54.6767 46.4066 53.6C46.4066 52.4667 46.7749 51.9 47.5116 51.9H54.6516V7.7L52.2716 8.125C50.2882 8.465 48.6732 9.06 47.4266 9.91C46.6332 9.00333 46.0949 7.67166 45.8116 5.915C45.8116 5.745 45.8116 5.60333 45.8116 5.49C45.8116 4.86666 46.1516 4.47 46.8316 4.3L57.6266 1.58C57.9099 1.52333 58.1932 1.495 58.4766 1.495ZM94.4236 36.515C92.8936 36.515 91.3636 36.6567 89.8336 36.94C89.3803 35.3533 89.1536 33.795 89.1536 32.265C89.1536 31.3583 89.5503 30.905 90.3436 30.905H101.139V49.775C101.139 50.965 101.365 51.815 101.819 52.325C102.272 52.835 103.094 53.09 104.284 53.09C104.34 54.5633 103.944 55.725 103.094 56.575C102.3 57.425 101.139 57.85 99.6086 57.85C97.2286 57.85 95.6986 56.9717 95.0186 55.215C93.4319 56.9717 91.2503 57.85 88.4736 57.85C82.6936 57.85 79.8036 55.13 79.8036 49.69V9.91C79.8036 7.07666 80.7669 4.86666 82.6936 3.28C84.6203 1.69333 87.1986 0.899998 90.4286 0.899998C93.7153 0.899998 96.3219 1.63667 98.2486 3.11C100.175 4.52667 101.139 6.39666 101.139 8.72V18.41C101.139 19.43 100.402 20.1383 98.9286 20.535C98.1353 20.7617 97.3419 20.875 96.5486 20.875C95.7553 20.875 94.9619 20.79 94.1686 20.62C94.3386 19.26 94.4236 17.815 94.4236 16.285V9.91C94.4236 8.83333 94.0553 8.01167 93.3186 7.445C92.5819 6.82166 91.6186 6.51 90.4286 6.51C89.2386 6.51 88.2753 6.82166 87.5386 7.445C86.8586 8.01167 86.5186 8.83333 86.5186 9.91V49.18C86.5186 51.22 87.5386 52.24 89.5786 52.24C91.6753 52.24 93.2903 51.2483 94.4236 49.265V36.515ZM121.903 1.75C123.943 1.75 125.473 1.60833 126.493 1.325C126.947 2.91166 127.173 4.47 127.173 6C127.173 6.90666 126.777 7.36 125.983 7.36H119.353V49.01L119.693 57C117.767 57.2833 115.868 57.425 113.998 57.425C113.092 57.425 112.638 56.9433 112.638 55.98V7.36H110.088C108.048 7.36 106.518 7.50166 105.498 7.785C105.045 6.19833 104.818 4.64 104.818 3.11C104.818 2.20333 105.215 1.75 106.008 1.75H121.903ZM139.523 33.285H135.273C134.537 33.285 134.168 32.8883 134.168 32.095C134.168 30.905 134.367 29.375 134.763 27.505C135.67 27.7883 137.058 27.93 138.928 27.93H140.033C140.997 27.93 141.762 27.6183 142.328 26.995C142.895 26.3717 143.178 25.55 143.178 24.53V9.825C143.178 7.50167 142.045 6.34 139.778 6.34C137.568 6.34 136.463 7.47333 136.463 9.74V13.735L136.718 18.07C135.982 18.24 135.217 18.325 134.423 18.325C133.687 18.325 132.95 18.2117 132.213 17.985C130.797 17.5883 130.088 16.88 130.088 15.86V8.89C130.088 6.39666 130.882 4.44166 132.468 3.025C134.112 1.60833 136.407 0.899998 139.353 0.899998C146.04 0.899998 149.383 3.39333 149.383 8.38V24.7C149.383 27.25 148.618 29.205 147.088 30.565C148.618 31.925 149.383 33.88 149.383 36.43V48.84C149.383 51.6733 148.505 53.8833 146.748 55.47C144.992 57.0567 142.64 57.85 139.693 57.85C136.803 57.85 134.48 57.1133 132.723 55.64C130.967 54.11 130.088 52.1833 130.088 49.86V44.59C130.088 43.57 130.768 42.8617 132.128 42.465C132.922 42.2383 133.687 42.125 134.423 42.125C135.16 42.125 135.897 42.21 136.633 42.38C136.52 43.74 136.463 45.185 136.463 46.715V49.18C136.463 50.2 136.775 51.0217 137.398 51.645C138.022 52.2683 138.787 52.58 139.693 52.58C140.657 52.58 141.45 52.2683 142.073 51.645C142.697 51.0217 143.008 50.2 143.008 49.18V36.685C143.008 35.6083 142.697 34.7867 142.073 34.22C141.45 33.5967 140.6 33.285 139.523 33.285ZM166.063 55.98V9.995C166.063 8.74833 165.836 7.87 165.383 7.36C164.929 6.79333 164.108 6.51 162.918 6.51C162.861 5.03667 163.258 3.875 164.108 3.025C164.958 2.175 166.318 1.75 168.188 1.75C170.058 1.75 171.389 2.685 172.183 4.555C174.393 2.685 176.659 1.75 178.983 1.75C184.593 1.75 187.398 4.52666 187.398 10.08V29.8C187.398 33.37 185.896 35.92 182.893 37.45L184.678 48.84C184.961 50.6533 185.839 51.56 187.313 51.56C187.766 51.56 188.304 51.4467 188.928 51.22C189.154 51.9 189.268 52.7217 189.268 53.685C189.268 54.5917 188.786 55.5267 187.823 56.49C186.916 57.3967 185.726 57.85 184.253 57.85C180.909 57.85 179.011 56.405 178.558 53.515L176.093 38.81H172.778V49.01L173.118 57C171.191 57.2833 169.293 57.425 167.423 57.425C166.516 57.425 166.063 56.9433 166.063 55.98ZM177.368 7.36C175.838 7.36 174.308 8.125 172.778 9.655V33.2H176.688C177.878 33.2 178.841 32.9167 179.578 32.35C180.314 31.7267 180.683 30.8767 180.683 29.8V10.59C180.683 8.43666 179.578 7.36 177.368 7.36ZM193.267 21.385V9.91C193.267 7.07666 194.231 4.86666 196.157 3.28C198.084 1.69333 200.662 0.899998 203.892 0.899998C207.179 0.899998 209.786 1.63667 211.712 3.11C213.639 4.52667 214.602 6.39666 214.602 8.72V19.26C214.602 20.28 213.866 20.9883 212.392 21.385C211.599 21.6117 210.806 21.725 210.012 21.725C209.219 21.725 208.426 21.64 207.632 21.47C207.802 20.11 207.887 18.665 207.887 17.135V9.91C207.887 8.83333 207.519 8.01167 206.782 7.445C206.046 6.82166 205.082 6.51 203.892 6.51C202.702 6.51 201.739 6.82166 201.002 7.445C200.322 8.01167 199.982 8.83333 199.982 9.91V19.855C199.982 21.8383 200.634 23.2267 201.937 24.02L210.947 29.8C213.497 31.3867 214.772 33.8233 214.772 37.11V48.84C214.772 51.6733 213.781 53.8833 211.797 55.47C209.814 57.0567 207.179 57.85 203.892 57.85C200.662 57.85 198.056 57.1417 196.072 55.725C194.089 54.2517 193.097 52.3533 193.097 50.03V39.49C193.097 38.47 193.834 37.7617 195.307 37.365C196.101 37.1383 196.894 37.025 197.687 37.025C198.481 37.025 199.274 37.11 200.067 37.28C199.897 38.64 199.812 40.085 199.812 41.615V48.84C199.812 49.86 200.209 50.6817 201.002 51.305C201.796 51.9283 202.787 52.24 203.977 52.24C205.167 52.24 206.131 51.9283 206.867 51.305C207.661 50.6817 208.057 49.86 208.057 48.84V39.235C208.057 37.025 207.292 35.4383 205.762 34.475L196.752 28.61C194.429 27.1367 193.267 24.7283 193.267 21.385Z" fill="#D1D5DB" fill-opacity="0.9"/>
</svg>
