<svg width="220" height="86" viewBox="0 0 220 86" fill="none" xmlns="http://www.w3.org/2000/svg">
<path d="M36.227 7.825L24.072 7.57C11.662 7.57 5.45701 10.29 5.45701 15.73C5.45701 17.1467 5.96701 18.3083 6.98701 19.215C8.06368 20.065 9.65035 20.49 11.747 20.49C13.8437 20.49 16.592 19.5267 19.992 17.6L21.267 19.81C19.5103 21.68 17.527 23.1533 15.317 24.23C13.107 25.3067 10.897 25.845 8.68701 25.845C6.47701 25.845 4.57868 25.1083 2.99201 23.635C1.40535 22.1617 0.612012 20.32 0.612012 18.11C0.612012 13.6333 3.02035 9.72333 7.83701 6.38C12.7103 3.03666 19.2837 1.365 27.557 1.365C28.237 1.365 30.6737 1.47833 34.867 1.705C39.0603 1.93166 42.3753 2.045 44.812 2.045C47.2487 2.045 49.487 1.67666 51.527 0.939997C52.3203 0.71333 52.802 0.599996 52.972 0.599996C53.7653 0.599996 54.162 1.11 54.162 2.13C54.162 3.60333 52.8587 4.935 50.252 6.125C47.702 7.315 44.7553 7.91 41.412 7.91C37.672 11.5367 34.3853 17.8833 31.552 26.95C28.7753 35.96 25.432 42.845 21.522 47.605C17.6687 52.3083 13.0787 54.66 7.75201 54.66C5.65535 54.66 3.67201 53.98 1.80201 52.62L3.75701 49.39C4.43701 49.73 5.20201 50.0417 6.05201 50.325L7.24201 50.495C7.52535 50.5517 7.95035 50.58 8.51701 50.58C11.3503 50.58 13.872 49.22 16.082 46.5C18.3487 43.78 20.7003 38.6517 23.137 31.115C25.6303 23.5217 27.557 18.5067 28.917 16.07C30.3337 13.5767 32.7703 10.8283 36.227 7.825ZM69.7422 46.415L71.6972 47.86C70.9039 49.56 69.4306 51.175 67.2772 52.705C65.1806 54.235 63.2539 55 61.4972 55C58.1539 55 56.4822 53.2433 56.4822 49.73C56.4822 48.0867 56.9072 46.1317 57.7572 43.865L54.6122 47.095C51.5522 50.2117 48.8889 52.3083 46.6222 53.385C44.4122 54.4617 42.2306 55 40.0772 55C37.9239 55 36.2806 54.405 35.1472 53.215C34.0706 51.9683 33.5322 50.2683 33.5322 48.115C33.5322 44.1483 35.0622 40.2383 38.1222 36.385C41.1822 32.475 45.0922 29.3017 49.8522 26.865C54.6122 24.4283 59.3722 23.1817 64.1322 23.125L64.3022 25.93L60.7322 26.695C55.5756 27.8283 51.0139 30.095 47.0472 33.495C43.1372 36.895 41.1822 40.295 41.1822 43.695C41.1822 47.0383 42.5422 48.71 45.2622 48.71C47.8122 48.71 50.9572 46.925 54.6972 43.355C58.4372 39.785 61.5539 35.5917 64.0472 30.775L67.6172 32.9C64.1039 39.9833 62.3472 44.4883 62.3472 46.415C62.3472 47.2083 62.6022 47.8883 63.1122 48.455C63.6789 48.965 64.2172 49.22 64.7272 49.22C65.2939 49.22 65.6622 49.1917 65.8322 49.135C66.0022 49.0783 66.1722 49.0217 66.3422 48.965C66.5122 48.8517 66.7106 48.71 66.9372 48.54C67.2206 48.37 67.4472 48.2 67.6172 48.03C67.8439 47.86 68.1839 47.605 68.6372 47.265C69.0906 46.925 69.4589 46.6417 69.7422 46.415ZM108.056 49.645L108.311 51.855C108.084 52.025 105.449 53.045 100.406 54.915C99.726 58.655 98.8477 62.3383 97.771 65.965C96.751 69.6483 95.7027 72.425 94.626 74.295C93.606 76.2217 92.3877 78.12 90.971 79.99C88.1377 83.73 84.3127 85.6 79.496 85.6C77.116 85.6 75.2177 84.8633 73.801 83.39C72.3843 81.9167 71.676 79.905 71.676 77.355C71.676 67.5517 79.8927 59.675 96.326 53.725L100.916 37.575C96.0427 44.885 91.651 49.39 87.741 51.09C85.8143 51.9967 83.7743 52.45 81.621 52.45C79.5243 52.45 77.8243 51.77 76.521 50.41C75.2743 49.05 74.651 47.0667 74.651 44.46C74.651 41.8533 75.5293 38.2267 77.286 33.58C79.0993 28.8767 81.111 24.9383 83.321 21.765L87.486 23.55C87.316 23.72 86.5227 25.2217 85.106 28.055C82.6127 33.2117 81.366 37.0367 81.366 39.53C81.366 42.0233 81.8477 43.695 82.811 44.545C83.7743 45.395 85.191 45.82 87.061 45.82C88.931 45.82 91.0277 44.715 93.351 42.505C95.731 40.2383 99.386 35.79 104.316 29.16L107.376 30.945C106.923 32.815 105.903 36.215 104.316 41.145C102.786 46.0183 101.738 49.7583 101.171 52.365L108.056 49.645ZM95.816 56.275C92.246 57.9183 89.101 59.7883 86.381 61.885C81.281 65.7383 78.731 69.4783 78.731 73.105C78.731 74.465 79.1277 75.57 79.921 76.42C80.7143 77.27 81.706 77.695 82.896 77.695C88.5627 77.695 92.8693 70.555 95.816 56.275ZM134.506 42.93L136.546 44.63C135.186 47.7467 133.004 50.24 130.001 52.11C126.997 53.98 124.079 54.915 121.246 54.915C118.469 54.915 116.146 54.0367 114.276 52.28C112.462 50.5233 111.556 48.115 111.556 45.055C111.556 41.995 112.887 38.68 115.551 35.11C118.214 31.54 121.642 28.5933 125.836 26.27C130.086 23.9467 134.251 22.785 138.331 22.785C138.897 22.785 139.747 22.8417 140.881 22.955L140.626 26.27C134.392 26.5533 129.207 28.4517 125.071 31.965C120.991 35.4783 118.951 39.2183 118.951 43.185C118.951 44.8283 119.461 46.16 120.481 47.18C121.501 48.2 122.832 48.71 124.476 48.71C127.082 48.71 130.426 46.7833 134.506 42.93ZM178.981 46.415L180.936 47.86C180.142 49.56 178.669 51.175 176.516 52.705C174.419 54.235 172.492 55 170.736 55C167.392 55 165.721 53.2433 165.721 49.73C165.721 48.0867 166.146 46.1317 166.996 43.865L163.851 47.095C160.791 50.2117 158.127 52.3083 155.861 53.385C153.651 54.4617 151.469 55 149.316 55C147.162 55 145.519 54.405 144.386 53.215C143.309 51.9683 142.771 50.2683 142.771 48.115C142.771 44.1483 144.301 40.2383 147.361 36.385C150.421 32.475 154.331 29.3017 159.091 26.865C163.851 24.4283 168.611 23.1817 173.371 23.125L173.541 25.93L169.971 26.695C164.814 27.8283 160.252 30.095 156.286 33.495C152.376 36.895 150.421 40.295 150.421 43.695C150.421 47.0383 151.781 48.71 154.501 48.71C157.051 48.71 160.196 46.925 163.936 43.355C167.676 39.785 170.792 35.5917 173.286 30.775L176.856 32.9C173.342 39.9833 171.586 44.4883 171.586 46.415C171.586 47.2083 171.841 47.8883 172.351 48.455C172.917 48.965 173.456 49.22 173.966 49.22C174.532 49.22 174.901 49.1917 175.071 49.135C175.241 49.0783 175.411 49.0217 175.581 48.965C175.751 48.8517 175.949 48.71 176.176 48.54C176.459 48.37 176.686 48.2 176.856 48.03C177.082 47.86 177.422 47.605 177.876 47.265C178.329 46.925 178.697 46.6417 178.981 46.415ZM217.974 44.715L219.759 46.075C218.513 48.5683 216.784 50.665 214.574 52.365C212.421 54.065 210.466 54.915 208.709 54.915C206.953 54.915 205.564 54.405 204.544 53.385C203.524 52.365 203.014 51.09 203.014 49.56C203.014 48.03 203.978 45.3667 205.904 41.57C207.888 37.7167 208.879 34.8833 208.879 33.07C208.879 32.2767 208.539 31.5683 207.859 30.945C207.236 30.265 206.471 29.925 205.564 29.925C202.674 29.925 199.756 32.135 196.809 36.555C193.863 40.9183 190.576 47.2367 186.949 55.51L181.849 53.725C182.926 47.1517 184.456 40.7483 186.439 34.515C188.479 28.225 190.349 23.72 192.049 21L195.534 22.105C193.948 26.1283 191.936 33.07 189.499 42.93C197.319 29.5567 204.516 22.87 211.089 22.87C212.506 22.87 213.668 23.3517 214.574 24.315C215.538 25.2783 216.019 26.4117 216.019 27.715C216.019 29.0183 215.849 30.2083 215.509 31.285C215.169 32.305 214.093 34.7417 212.279 38.595C210.523 42.3917 209.644 44.7717 209.644 45.735C209.644 46.6983 209.928 47.4633 210.494 48.03C211.061 48.54 211.599 48.795 212.109 48.795C212.619 48.795 213.044 48.71 213.384 48.54C213.724 48.37 214.093 48.115 214.489 47.775C214.943 47.435 215.339 47.1233 215.679 46.84C216.019 46.5567 216.416 46.1883 216.869 45.735C217.379 45.225 217.748 44.885 217.974 44.715Z" fill="#D1D5DB" fill-opacity="0.9"/>
</svg>
