<svg width="149" height="154" viewBox="0 0 149 154" fill="none" xmlns="http://www.w3.org/2000/svg">
<path d="M143.615 138.752C129.673 132.012 121.672 117.251 121.672 98.3441V86.9432C121.677 84.2973 120.886 81.7111 119.399 79.5219C117.913 77.3327 115.802 75.6422 113.341 74.6709L96.9292 68.1948C96.2848 67.9385 95.767 67.4389 95.4878 66.8039C95.2087 66.169 95.1905 65.4498 95.4373 64.8016L109.518 29.8133C110.6 27.1914 111.142 24.3787 111.113 21.5427C111.084 18.7068 110.484 15.9058 109.349 13.3066C108.214 10.7075 106.568 8.36343 104.508 6.41424C102.448 4.46506 100.016 2.95064 97.3583 1.9613C92.1775 0.0547653 86.4574 0.243256 81.4133 2.48673C76.3692 4.7302 72.3985 8.85186 70.3447 13.9761L70.2985 14.095L56.4352 49.1427C56.3089 49.467 56.1188 49.7626 55.8761 50.0121C55.6334 50.2615 55.3432 50.4598 55.0225 50.595C54.7115 50.7324 54.3762 50.8067 54.0362 50.8135C53.6963 50.8203 53.3583 50.7595 53.042 50.6346L36.2477 43.835C33.8276 42.8545 31.1701 42.6179 28.6149 43.1553C26.0596 43.6926 23.7226 44.9797 21.9025 46.8519C7.50446 61.6592 0.203134 78.9883 0.203134 98.3441C0.166529 118.11 7.80956 137.117 21.5196 151.355C22.2624 152.13 23.1552 152.747 24.1436 153.167C25.1321 153.587 26.1956 153.801 27.2695 153.797H140.156C141.947 153.796 143.685 153.187 145.086 152.071C146.487 150.954 147.468 149.396 147.869 147.65C148.271 145.905 148.069 144.075 147.296 142.459C146.523 140.843 145.226 139.536 143.615 138.752ZM32.0161 59.2167L47.1138 65.3363C49.373 66.2406 51.7884 66.6899 54.2216 66.6585C56.6548 66.6271 59.0579 66.1155 61.2929 65.1532C63.528 64.1908 65.551 62.7966 67.2459 61.0506C68.9409 59.3046 70.2744 57.2411 71.1699 54.9784L85.0002 19.9902C85.5195 18.6926 86.514 17.6418 87.781 17.0518C89.048 16.4619 90.4923 16.3771 91.8196 16.8148C92.4862 17.0617 93.0961 17.4406 93.6127 17.9288C94.1294 18.417 94.5422 19.0045 94.8263 19.656C95.1105 20.3076 95.2602 21.0098 95.2665 21.7206C95.2728 22.4314 95.1355 23.1362 94.8629 23.7927C94.8618 23.8169 94.8618 23.8411 94.8629 23.8653L80.7422 58.9262C78.9472 63.4803 79.0285 68.5598 80.9682 73.0542C82.908 77.5485 86.5484 81.0919 91.0934 82.9097L105.828 88.7388V98.3441C105.828 99.0043 105.828 99.7106 105.861 100.391L25.0316 68.0429C27.1091 64.9109 29.4455 61.9585 32.0161 59.2167ZM64.0666 137.953C56.9563 130.856 51.9147 121.955 49.4838 112.207C48.9585 110.172 47.6463 108.429 45.8356 107.361C44.025 106.293 41.8644 105.988 39.829 106.514C37.7937 107.039 36.0503 108.351 34.9825 110.162C33.9147 111.972 33.6099 114.133 34.1352 116.168C36.1074 123.906 39.3391 131.266 43.7008 137.953H30.7354C21.2329 126.948 16.0178 112.884 16.0469 98.3441C16.0202 92.9575 16.7786 87.5957 18.298 82.4277L108.522 118.512C110.459 125.547 113.727 132.147 118.147 137.953H64.0666Z" fill="#444444"/>
</svg>
