<svg width="32" height="32" viewBox="0 0 32 32" fill="none" xmlns="http://www.w3.org/2000/svg">
<path d="M30 12.5H28.975L25.635 4.985C25.4386 4.54295 25.1182 4.16737 24.7126 3.90379C24.307 3.6402 23.8337 3.49994 23.35 3.5H8.65C8.16629 3.49994 7.69295 3.6402 7.28737 3.90379C6.88179 4.16737 6.56139 4.54295 6.365 4.985L3.025 12.5H2C1.60218 12.5 1.22064 12.658 0.93934 12.9393C0.658035 13.2206 0.5 13.6022 0.5 14C0.5 14.3978 0.658035 14.7794 0.93934 15.0607C1.22064 15.342 1.60218 15.5 2 15.5H2.5V25C2.5 25.663 2.76339 26.2989 3.23223 26.7678C3.70107 27.2366 4.33696 27.5 5 27.5H8.5C9.16304 27.5 9.79893 27.2366 10.2678 26.7678C10.7366 26.2989 11 25.663 11 25V22.5H21V25C21 25.663 21.2634 26.2989 21.7322 26.7678C22.2011 27.2366 22.837 27.5 23.5 27.5H27C27.663 27.5 28.2989 27.2366 28.7678 26.7678C29.2366 26.2989 29.5 25.663 29.5 25V15.5H30C30.3978 15.5 30.7794 15.342 31.0607 15.0607C31.342 14.7794 31.5 14.3978 31.5 14C31.5 13.6022 31.342 13.2206 31.0607 12.9393C30.7794 12.658 30.3978 12.5 30 12.5ZM8.975 6.5H23.025L25.6912 12.5H6.30875L8.975 6.5ZM8 24.5H5.5V22.5H8V24.5ZM24 24.5V22.5H26.5V24.5H24ZM26.5 19.5H5.5V15.5H26.5V19.5Z" fill="#444444"/>
</svg>
