<svg width="32" height="32" viewBox="0 0 32 32" fill="none" xmlns="http://www.w3.org/2000/svg">
<path d="M29.5 12.5H28.125L23.8538 8.2325C23.6222 7.99956 23.3468 7.81487 23.0434 7.68913C22.74 7.5634 22.4147 7.49911 22.0863 7.5H18V5.5H20.5C20.8978 5.5 21.2794 5.34196 21.5607 5.06066C21.842 4.77936 22 4.39782 22 4C22 3.60218 21.842 3.22064 21.5607 2.93934C21.2794 2.65804 20.8978 2.5 20.5 2.5H12.5C12.1022 2.5 11.7206 2.65804 11.4393 2.93934C11.158 3.22064 11 3.60218 11 4C11 4.39782 11.158 4.77936 11.4393 5.06066C11.7206 5.34196 12.1022 5.5 12.5 5.5H15V7.5H8C7.33696 7.5 6.70107 7.76339 6.23223 8.23223C5.76339 8.70107 5.5 9.33696 5.5 10V16H3.5V13.5C3.5 13.1022 3.34196 12.7206 3.06066 12.4393C2.77936 12.158 2.39782 12 2 12C1.60218 12 1.22064 12.158 0.93934 12.4393C0.658035 12.7206 0.5 13.1022 0.5 13.5V21.5C0.5 21.8978 0.658035 22.2794 0.93934 22.5607C1.22064 22.842 1.60218 23 2 23C2.39782 23 2.77936 22.842 3.06066 22.5607C3.34196 22.2794 3.5 21.8978 3.5 21.5V19H5.5V21.0863C5.49911 21.4147 5.5634 21.74 5.68913 22.0434C5.81487 22.3468 5.99956 22.6222 6.2325 22.8538L11.1462 27.7675C11.3778 28.0004 11.6532 28.1851 11.9566 28.3109C12.26 28.4366 12.5853 28.5009 12.9137 28.5H22.0863C22.4147 28.5009 22.74 28.4366 23.0434 28.3109C23.3468 28.1851 23.6222 28.0004 23.8538 27.7675L28.125 23.5H29.5C30.163 23.5 30.7989 23.2366 31.2678 22.7678C31.7366 22.2989 32 21.663 32 21V15C32 14.337 31.7366 13.7011 31.2678 13.2322C30.7989 12.7634 30.163 12.5 29.5 12.5ZM29 20.5H27.5C27.303 20.4998 27.1078 20.5385 26.9257 20.6138C26.7436 20.6891 26.5782 20.7995 26.4387 20.9387L21.875 25.5H13.125L8.5 20.875V10.5H21.875L26.435 15.0612C26.5749 15.2009 26.7409 15.3116 26.9237 15.3869C27.1065 15.4622 27.3023 15.5006 27.5 15.5H29V20.5Z" fill="#444444"/>
</svg>
