<svg width="169" height="169" viewBox="0 0 169 169" fill="none" xmlns="http://www.w3.org/2000/svg">
<rect width="169" height="169" fill="#1E1E1E"/>
<g id="OBD_DIAGNOSE">
<path d="M-3590 -534C-3590 -535.105 -3589.1 -536 -3588 -536H3027C3028.1 -536 3029 -535.105 3029 -534V1873C3029 1874.1 3028.1 1875 3027 1875H-3588C-3589.1 1875 -3590 1874.1 -3590 1873V-534Z" fill="#444444"/>
<path d="M-3588 -535H3027V-537H-3588V-535ZM3028 -534V1873H3030V-534H3028ZM3027 1874H-3588V1876H3027V1874ZM-3589 1873V-534H-3591V1873H-3589ZM-3588 1874C-3588.55 1874 -3589 1873.55 -3589 1873H-3591C-3591 1874.66 -3589.66 1876 -3588 1876V1874ZM3028 1873C3028 1873.55 3027.55 1874 3027 1874V1876C3028.66 1876 3030 1874.66 3030 1873H3028ZM3027 -535C3027.55 -535 3028 -534.552 3028 -534H3030C3030 -535.657 3028.66 -537 3027 -537V-535ZM-3588 -537C-3589.66 -537 -3591 -535.657 -3591 -534H-3589C-3589 -534.552 -3588.55 -535 -3588 -535V-537Z" fill="white" fill-opacity="0.1"/>
<g id="mainHelp_VehicleDetails_Diagnose_Loading5">
<rect width="412" height="917" transform="translate(-124 -436)" fill="white"/>
<g id="Hourglass">
<path id="Vector" d="M134.672 49.9342V26.4062C134.672 22.9046 133.281 19.5463 130.805 17.0702C128.329 14.5942 124.97 13.2031 121.469 13.2031H47.5312C44.0296 13.2031 40.6713 14.5942 38.1952 17.0702C35.7192 19.5463 34.3281 22.9046 34.3281 26.4062V50.1719C34.3332 52.2207 34.8127 54.2405 35.7289 56.073C36.6452 57.9056 37.9734 59.501 39.6094 60.7344L71.2969 84.5L39.6094 108.266C37.9734 109.499 36.6452 111.094 35.7289 112.927C34.8127 114.759 34.3332 116.779 34.3281 118.828V142.594C34.3281 146.095 35.7192 149.454 38.1952 151.93C40.6713 154.406 44.0296 155.797 47.5312 155.797H121.469C124.97 155.797 128.329 154.406 130.805 151.93C133.281 149.454 134.672 146.095 134.672 142.594V119.066C134.67 117.021 134.196 115.003 133.287 113.171C132.378 111.339 131.058 109.742 129.43 108.503L97.6371 84.5L129.43 60.4703C131.054 59.2345 132.372 57.6413 133.281 55.8141C134.19 53.9869 134.666 51.975 134.672 49.9342ZM118.828 139.953H50.1719V120.148L84.5 94.4023L118.828 120.366V139.953ZM118.828 48.6205L84.5 74.5977L50.1719 48.8516V29.0469H118.828V48.6205Z" fill="#444444"/>
</g>
</g>
</g>
</svg>
