<svg width="95" height="94" viewBox="0 0 95 94" fill="none" xmlns="http://www.w3.org/2000/svg">
<g id="Notebook">
<path id="Vector" d="M40.0781 39.6562C40.0781 38.4876 40.5473 37.3669 41.3824 36.5406C42.2175 35.7142 43.3502 35.25 44.5312 35.25H65.3125C66.4935 35.25 67.6262 35.7142 68.4613 36.5406C69.2965 37.3669 69.7656 38.4876 69.7656 39.6562C69.7656 40.8249 69.2965 41.9456 68.4613 42.7719C67.6262 43.5983 66.4935 44.0625 65.3125 44.0625H44.5312C43.3502 44.0625 42.2175 43.5983 41.3824 42.7719C40.5473 41.9456 40.0781 40.8249 40.0781 39.6562ZM65.3125 49.9375H44.5312C43.3502 49.9375 42.2175 50.4017 41.3824 51.2281C40.5473 52.0544 40.0781 53.1751 40.0781 54.3438C40.0781 55.5124 40.5473 56.6331 41.3824 57.4594C42.2175 58.2858 43.3502 58.75 44.5312 58.75H65.3125C66.4935 58.75 67.6262 58.2858 68.4613 57.4594C69.2965 56.6331 69.7656 55.5124 69.7656 54.3438C69.7656 53.1751 69.2965 52.0544 68.4613 51.2281C67.6262 50.4017 66.4935 49.9375 65.3125 49.9375ZM84.6094 17.625V76.375C84.6094 78.3227 83.8274 80.1906 82.4356 81.5678C81.0437 82.945 79.1559 83.7188 77.1875 83.7188H17.8125C15.8441 83.7188 13.9563 82.945 12.5644 81.5678C11.1726 80.1906 10.3906 78.3227 10.3906 76.375V17.625C10.3906 15.6773 11.1726 13.8094 12.5644 12.4322C13.9563 11.055 15.8441 10.2813 17.8125 10.2812H77.1875C79.1559 10.2813 81.0437 11.055 82.4356 12.4322C83.8274 13.8094 84.6094 15.6773 84.6094 17.625ZM19.2969 74.9062H25.2344V19.0938H19.2969V74.9062ZM75.7031 19.0938H34.1406V74.9062H75.7031V19.0938Z" fill="#444444"/>
</g>
</svg>
