<svg width="24" height="24" viewBox="0 0 24 24" fill="none" xmlns="http://www.w3.org/2000/svg">
<path d="M11.75 2C9.82164 2 7.93657 2.57183 6.33319 3.64317C4.72982 4.71452 3.48013 6.23726 2.74218 8.01884C2.00422 9.80042 1.81114 11.7608 2.18735 13.6521C2.56355 15.5434 3.49215 17.2807 4.85571 18.6443C6.21928 20.0079 7.95656 20.9365 9.84787 21.3127C11.7392 21.6889 13.6996 21.4958 15.4812 20.7578C17.2627 20.0199 18.7855 18.7702 19.8568 17.1668C20.9282 15.5634 21.5 13.6784 21.5 11.75C21.4973 9.16498 20.4692 6.68661 18.6413 4.85872C16.8134 3.03084 14.335 2.00273 11.75 2ZM6.695 18.2656C7.23757 17.4171 7.98501 16.7188 8.86843 16.2351C9.75185 15.7513 10.7428 15.4978 11.75 15.4978C12.7572 15.4978 13.7482 15.7513 14.6316 16.2351C15.515 16.7188 16.2624 17.4171 16.805 18.2656C15.3597 19.3897 13.581 19.9999 11.75 19.9999C9.91905 19.9999 8.14031 19.3897 6.695 18.2656ZM8.75 11C8.75 10.4067 8.92595 9.82664 9.2556 9.33329C9.58524 8.83994 10.0538 8.45542 10.602 8.22836C11.1501 8.0013 11.7533 7.94189 12.3353 8.05764C12.9172 8.1734 13.4518 8.45912 13.8713 8.87868C14.2909 9.29824 14.5766 9.83279 14.6924 10.4147C14.8081 10.9967 14.7487 11.5999 14.5216 12.148C14.2946 12.6962 13.9101 13.1648 13.4167 13.4944C12.9234 13.8241 12.3433 14 11.75 14C10.9544 14 10.1913 13.6839 9.62868 13.1213C9.06607 12.5587 8.75 11.7956 8.75 11ZM17.915 17.2259C17.0785 16.0138 15.9024 15.0761 14.5344 14.5306C15.2692 13.9519 15.8054 13.1585 16.0684 12.2608C16.3315 11.3632 16.3082 10.4059 16.002 9.52207C15.6957 8.63825 15.1216 7.87183 14.3596 7.3294C13.5975 6.78696 12.6854 6.49548 11.75 6.49548C10.8146 6.49548 9.90248 6.78696 9.14044 7.3294C8.37839 7.87183 7.80432 8.63825 7.49805 9.52207C7.19179 10.4059 7.16855 11.3632 7.43157 12.2608C7.69459 13.1585 8.2308 13.9519 8.96563 14.5306C7.59765 15.0761 6.42147 16.0138 5.585 17.2259C4.52804 16.0373 3.8372 14.5685 3.59567 12.9964C3.35415 11.4243 3.57224 9.81584 4.22368 8.36478C4.87512 6.91372 5.93213 5.68192 7.26745 4.81769C8.60276 3.95346 10.1594 3.49367 11.75 3.49367C13.3406 3.49367 14.8973 3.95346 16.2326 4.81769C17.5679 5.68192 18.6249 6.91372 19.2763 8.36478C19.9278 9.81584 20.1459 11.4243 19.9043 12.9964C19.6628 14.5685 18.972 16.0373 17.915 17.2259Z" fill="#444444"/>
</svg>
