<svg width="23" height="22" viewBox="0 0 23 22" fill="none" xmlns="http://www.w3.org/2000/svg">
<path d="M21.25 18.875H19.375V2.75C19.375 2.25272 19.1775 1.77581 18.8258 1.42417C18.4742 1.07254 17.9973 0.875 17.5 0.875H5.5C5.00272 0.875 4.52581 1.07254 4.17417 1.42417C3.82254 1.77581 3.625 2.25272 3.625 2.75V18.875H1.75C1.45163 18.875 1.16548 18.9935 0.954505 19.2045C0.743526 19.4155 0.625 19.7016 0.625 20C0.625 20.2984 0.743526 20.5845 0.954505 20.7955C1.16548 21.0065 1.45163 21.125 1.75 21.125H21.25C21.5484 21.125 21.8345 21.0065 22.0455 20.7955C22.2565 20.5845 22.375 20.2984 22.375 20C22.375 19.7016 22.2565 19.4155 22.0455 19.2045C21.8345 18.9935 21.5484 18.875 21.25 18.875ZM17.125 18.875H15.625V3.125H17.125V18.875ZM5.875 3.125H13.375V18.875H5.875V3.125ZM12.25 11C12.25 11.2967 12.162 11.5867 11.9972 11.8334C11.8324 12.08 11.5981 12.2723 11.324 12.3858C11.0499 12.4994 10.7483 12.5291 10.4574 12.4712C10.1664 12.4133 9.89912 12.2704 9.68934 12.0607C9.47956 11.8509 9.3367 11.5836 9.27882 11.2926C9.22094 11.0017 9.25065 10.7001 9.36418 10.426C9.47771 10.1519 9.66997 9.91762 9.91664 9.7528C10.1633 9.58797 10.4533 9.5 10.75 9.5C11.1478 9.5 11.5294 9.65804 11.8107 9.93934C12.092 10.2206 12.25 10.6022 12.25 11Z" fill="#444444"/>
</svg>
