<svg width="25" height="24" viewBox="0 0 25 24" fill="none" xmlns="http://www.w3.org/2000/svg">
<path d="M22.7047 12.5625C22.4814 11.7281 22.0806 10.9517 21.5296 10.2865C20.9786 9.62121 20.2905 9.08276 19.5122 8.70793C18.734 8.3331 17.884 8.13073 17.0204 8.11464C16.1567 8.09856 15.2998 8.26914 14.5081 8.61474L15.8413 3.29255C15.8981 3.06423 15.8818 2.82385 15.7949 2.60523C15.708 2.38661 15.5547 2.20075 15.3566 2.0738C14.0453 1.24272 12.463 0.952227 10.9421 1.26335C9.42115 1.57447 8.08001 2.46299 7.20045 3.74221C6.3209 5.02143 5.9714 6.59178 6.22539 8.12328C6.47938 9.65479 7.3171 11.0282 8.56251 11.955L3.28626 13.4616C3.05951 13.5264 2.85887 13.6609 2.71268 13.8459C2.56649 14.031 2.48215 14.2573 2.47157 14.4929C2.39243 16.0535 2.92528 17.5835 3.95679 18.7573C4.98829 19.9312 6.43706 20.6563 7.99495 20.7784C9.55283 20.9005 11.0969 20.41 12.2987 19.4113C13.5005 18.4125 14.2653 16.9843 14.4303 15.4304L18.3678 19.246C18.5375 19.4093 18.7542 19.5153 18.9873 19.5489C19.2204 19.5826 19.4582 19.5422 19.6672 19.4335C20.88 18.805 21.8421 17.7816 22.3944 16.5322C22.9467 15.2829 23.0561 13.8825 22.7047 12.5625ZM11.375 12C11.375 11.7775 11.441 11.56 11.5646 11.375C11.6882 11.19 11.8639 11.0458 12.0695 10.9607C12.2751 10.8755 12.5013 10.8533 12.7195 10.8967C12.9377 10.9401 13.1382 11.0472 13.2955 11.2046C13.4528 11.3619 13.56 11.5623 13.6034 11.7806C13.6468 11.9988 13.6245 12.225 13.5394 12.4306C13.4542 12.6361 13.31 12.8118 13.125 12.9355C12.94 13.0591 12.7225 13.125 12.5 13.125C12.2016 13.125 11.9155 13.0065 11.7045 12.7955C11.4935 12.5846 11.375 12.2984 11.375 12ZM12.125 3.37505C12.5732 3.37505 13.0177 3.45538 13.4375 3.61224L12.1813 8.64099C11.7011 8.68682 11.2363 8.83506 10.8183 9.0757C10.4002 9.31634 10.0386 9.64379 9.75782 10.036C9.15626 9.54743 8.72083 8.88449 8.51142 8.13835C8.30201 7.39222 8.32891 6.59952 8.58842 5.8693C8.84793 5.13907 9.3273 4.50718 9.96061 4.06053C10.5939 3.61388 11.35 3.37441 12.125 3.37505ZM10.3438 18.0094C9.81874 18.3133 9.22786 18.4852 8.62179 18.5105C8.01573 18.5358 7.41257 18.4136 6.86407 18.1546C6.31557 17.8956 5.83809 17.5073 5.4726 17.0232C5.10712 16.5391 4.86452 15.9735 4.76564 15.375L9.75126 13.951C10.0304 14.3447 10.3908 14.674 10.8081 14.9166C11.2253 15.1591 11.6897 15.3094 12.17 15.3572C12.0827 15.9075 11.8734 16.4313 11.5574 16.8902C11.2414 17.3492 10.8267 17.7316 10.3438 18.0094ZM20.1594 15.9882C19.9352 16.3776 19.6427 16.7234 19.296 17.0091L15.5684 13.4063C15.7696 12.9677 15.8742 12.491 15.875 12.0085C15.8758 11.526 15.7729 11.049 15.5731 10.6097C16.297 10.3334 17.0888 10.288 17.8395 10.48C18.5902 10.6719 19.263 11.0916 19.7655 11.6815C20.2679 12.2714 20.5753 13.0025 20.6453 13.7742C20.7153 14.5458 20.5446 15.3203 20.1566 15.991L20.1594 15.9882Z" fill="#444444"/>
</svg>
