<svg width="25" height="16" viewBox="0 0 25 16" fill="none" xmlns="http://www.w3.org/2000/svg">
<path d="M15.875 3.5C15.875 3.20163 15.9935 2.91548 16.2045 2.7045C16.4155 2.49353 16.7016 2.375 17 2.375H23C23.2983 2.375 23.5845 2.49353 23.7955 2.7045C24.0065 2.91548 24.125 3.20163 24.125 3.5C24.125 3.79837 24.0065 4.08452 23.7955 4.2955C23.5845 4.50647 23.2983 4.625 23 4.625H17C16.7016 4.625 16.4155 4.50647 16.2045 4.2955C15.9935 4.08452 15.875 3.79837 15.875 3.5ZM23 11.375H17C16.7016 11.375 16.4155 11.4935 16.2045 11.7045C15.9935 11.9155 15.875 12.2016 15.875 12.5C15.875 12.7984 15.9935 13.0845 16.2045 13.2955C16.4155 13.5065 16.7016 13.625 17 13.625H23C23.2983 13.625 23.5845 13.5065 23.7955 13.2955C24.0065 13.0845 24.125 12.7984 24.125 12.5C24.125 12.2016 24.0065 11.9155 23.7955 11.7045C23.5845 11.4935 23.2983 11.375 23 11.375ZM23 6.875H17C16.7016 6.875 16.4155 6.99353 16.2045 7.2045C15.9935 7.41548 15.875 7.70163 15.875 8C15.875 8.29837 15.9935 8.58452 16.2045 8.79549C16.4155 9.00647 16.7016 9.125 17 9.125H23C23.2983 9.125 23.5845 9.00647 23.7955 8.79549C24.0065 8.58452 24.125 8.29837 24.125 8C24.125 7.70163 24.0065 7.41548 23.7955 7.2045C23.5845 6.99353 23.2983 6.875 23 6.875ZM14.375 2V14C14.375 14.4973 14.1774 14.9742 13.8258 15.3258C13.4742 15.6775 12.9973 15.875 12.5 15.875H8.74998C7.71083 15.875 6.68195 15.6694 5.72264 15.27C4.76333 14.8705 3.89256 14.2852 3.16053 13.5476C2.42849 12.8101 1.84965 11.935 1.45739 10.9727C1.06512 10.0104 0.867184 8.98006 0.874977 7.94094C0.906852 3.63125 4.47779 0.125 8.83435 0.125H12.5C12.9973 0.125 13.4742 0.322544 13.8258 0.674175C14.1774 1.02581 14.375 1.50272 14.375 2ZM12.125 2.375H8.83435C5.70967 2.375 3.14841 4.87906 3.12498 7.95688C3.11929 8.69918 3.26058 9.43527 3.54071 10.1227C3.82085 10.8102 4.23428 11.4354 4.75718 11.9623C5.28007 12.4892 5.90209 12.9074 6.58738 13.1927C7.27266 13.4781 8.00765 13.625 8.74998 13.625H12.125V2.375Z" fill="#444444"/>
</svg>
