<svg width="21" height="22" viewBox="0 0 21 22" fill="none" xmlns="http://www.w3.org/2000/svg">
<path d="M19.8169 0.737943C19.6822 0.632858 19.5253 0.559839 19.3581 0.524427C19.191 0.489016 19.018 0.492142 18.8522 0.533568L6.85219 3.53357C6.60881 3.5944 6.39274 3.73484 6.23834 3.93257C6.08393 4.13029 6.00004 4.37395 6 4.62482V14.3139C5.25986 13.9909 4.4352 13.9154 3.64872 14.0987C2.86224 14.282 2.15595 14.7144 1.63492 15.3314C1.11388 15.9484 0.805949 16.7171 0.75692 17.5231C0.707891 18.3292 0.920388 19.1296 1.3628 19.8052C1.80521 20.4808 2.4539 20.9955 3.21237 21.2728C3.97083 21.5501 4.79855 21.5751 5.57239 21.3442C6.34623 21.1133 7.02485 20.6387 7.50729 19.9911C7.98973 19.3434 8.25022 18.5574 8.25 17.7498V10.0033L18 7.56576V11.3158C17.2598 10.9927 16.435 10.9173 15.6485 11.1006C14.8619 11.284 14.1556 11.7165 13.6346 12.3336C13.1136 12.9507 12.8058 13.7196 12.7569 14.5257C12.708 15.3319 12.9207 16.1323 13.3633 16.8078C13.8059 17.4834 14.4548 17.998 15.2135 18.2751C15.9721 18.5522 16.7999 18.5769 17.5737 18.3457C18.3476 18.1144 19.0261 17.6395 19.5083 16.9916C19.9905 16.3437 20.2506 15.5575 20.25 14.7498V1.62482C20.25 1.45379 20.2109 1.28502 20.1359 1.13135C20.0608 0.977668 19.9517 0.843124 19.8169 0.737943ZM4.5 19.2498C4.20333 19.2498 3.91332 19.1618 3.66665 18.997C3.41997 18.8322 3.22771 18.5979 3.11418 18.3238C3.00065 18.0498 2.97095 17.7482 3.02882 17.4572C3.0867 17.1662 3.22956 16.8989 3.43934 16.6892C3.64912 16.4794 3.9164 16.3365 4.20737 16.2786C4.49834 16.2208 4.79994 16.2505 5.07403 16.364C5.34812 16.4775 5.58238 16.6698 5.74721 16.9165C5.91203 17.1631 6 17.4531 6 17.7498C6 18.1476 5.84197 18.5292 5.56066 18.8105C5.27936 19.0918 4.89783 19.2498 4.5 19.2498ZM8.25 7.68388V5.50326L18 3.06576V5.24638L8.25 7.68388ZM16.5 16.2498C16.2033 16.2498 15.9133 16.1618 15.6666 15.997C15.42 15.8322 15.2277 15.5979 15.1142 15.3238C15.0007 15.0498 14.9709 14.7482 15.0288 14.4572C15.0867 14.1662 15.2296 13.8989 15.4393 13.6892C15.6491 13.4794 15.9164 13.3365 16.2074 13.2786C16.4983 13.2208 16.7999 13.2505 17.074 13.364C17.3481 13.4775 17.5824 13.6698 17.7472 13.9165C17.912 14.1631 18 14.4531 18 14.7498C18 15.1476 17.842 15.5292 17.5607 15.8105C17.2794 16.0918 16.8978 16.2498 16.5 16.2498Z" fill="#444444"/>
</svg>
