<svg width="25" height="24" viewBox="0 0 25 24" fill="none" xmlns="http://www.w3.org/2000/svg">
<path d="M11.375 12V4.5C11.375 4.20163 11.4935 3.91548 11.7045 3.7045C11.9155 3.49353 12.2016 3.375 12.5 3.375C12.7984 3.375 13.0845 3.49353 13.2955 3.7045C13.5065 3.91548 13.625 4.20163 13.625 4.5V12C13.625 12.2984 13.5065 12.5845 13.2955 12.7955C13.0845 13.0065 12.7984 13.125 12.5 13.125C12.2016 13.125 11.9155 13.0065 11.7045 12.7955C11.4935 12.5845 11.375 12.2984 11.375 12ZM17.6141 4.3125C17.3643 4.15868 17.0642 4.10853 16.778 4.17274C16.4917 4.23694 16.2419 4.41043 16.0817 4.6562C15.9215 4.90197 15.8637 5.2006 15.9205 5.4884C15.9774 5.77621 16.1444 6.03043 16.3859 6.19687C18.4447 7.53469 19.625 9.65625 19.625 12C19.625 13.8897 18.8743 15.7019 17.5381 17.0381C16.2019 18.3743 14.3897 19.125 12.5 19.125C10.6103 19.125 8.79806 18.3743 7.46186 17.0381C6.12567 15.7019 5.375 13.8897 5.375 12C5.375 9.65625 6.55531 7.53469 8.61406 6.19219C8.84278 6.02077 8.99768 5.76871 9.04729 5.48722C9.0969 5.20573 9.0375 4.9159 8.88116 4.67662C8.72482 4.43734 8.48326 4.26653 8.20555 4.1989C7.92784 4.13127 7.63479 4.17189 7.38594 4.3125C4.6775 6.07313 3.125 8.87719 3.125 12C3.125 14.4864 4.11272 16.871 5.87087 18.6291C7.62903 20.3873 10.0136 21.375 12.5 21.375C14.9864 21.375 17.371 20.3873 19.1291 18.6291C20.8873 16.871 21.875 14.4864 21.875 12C21.875 8.87719 20.3225 6.07313 17.6141 4.3125Z" fill="#444444"/>
</svg>
