<svg width="25" height="24" viewBox="0 0 25 24" fill="none" xmlns="http://www.w3.org/2000/svg">
<path d="M11.375 1.875V1.125C11.375 0.826631 11.4935 0.540483 11.7045 0.329505C11.9155 0.118526 12.2016 0 12.5 0C12.7984 0 13.0845 0.118526 13.2955 0.329505C13.5065 0.540483 13.625 0.826631 13.625 1.125V1.875C13.625 2.17337 13.5065 2.45952 13.2955 2.6705C13.0845 2.88147 12.7984 3 12.5 3C12.2016 3 11.9155 2.88147 11.7045 2.6705C11.4935 2.45952 11.375 2.17337 11.375 1.875ZM19.25 5.25C19.3978 5.25012 19.5441 5.22112 19.6807 5.16465C19.8173 5.10819 19.9414 5.02538 20.0459 4.92094L20.7959 4.17094C20.9006 4.06629 20.9836 3.94206 21.0402 3.80533C21.0969 3.6686 21.126 3.52206 21.126 3.37406C21.126 3.22607 21.0969 3.07952 21.0402 2.9428C20.9836 2.80607 20.9006 2.68183 20.7959 2.57719C20.6913 2.47254 20.5671 2.38953 20.4303 2.3329C20.2936 2.27626 20.1471 2.24711 19.9991 2.24711C19.8511 2.24711 19.7045 2.27626 19.5678 2.3329C19.4311 2.38953 19.3068 2.47254 19.2022 2.57719L18.4522 3.32719C18.2939 3.48454 18.186 3.68541 18.1422 3.90425C18.0984 4.12309 18.1207 4.35001 18.2062 4.55615C18.2918 4.7623 18.4367 4.93834 18.6225 5.06189C18.8084 5.18544 19.0268 5.25092 19.25 5.25ZM4.95406 4.92094C5.16541 5.13228 5.45205 5.25101 5.75094 5.25101C6.04982 5.25101 6.33647 5.13228 6.54781 4.92094C6.75916 4.70959 6.87789 4.42295 6.87789 4.12406C6.87789 3.82518 6.75916 3.53853 6.54781 3.32719L5.79781 2.57719C5.58647 2.36584 5.29982 2.24711 5.00094 2.24711C4.70205 2.24711 4.41541 2.36584 4.20406 2.57719C3.99272 2.78853 3.87399 3.07518 3.87399 3.37406C3.87399 3.67295 3.99272 3.95959 4.20406 4.17094L4.95406 4.92094ZM22.625 16.5V18.75C22.625 19.2473 22.4275 19.7242 22.0758 20.0758C21.7242 20.4275 21.2473 20.625 20.75 20.625H4.25C3.75272 20.625 3.27581 20.4275 2.92417 20.0758C2.57254 19.7242 2.375 19.2473 2.375 18.75V16.5C2.37491 16.0678 2.52417 15.6488 2.79751 15.3139C3.07085 14.9791 3.45149 14.7489 3.875 14.6625V13.125C3.875 10.8375 4.7837 8.64371 6.4012 7.0262C8.01871 5.4087 10.2125 4.5 12.5 4.5H12.5666C17.2813 4.53562 21.125 8.44687 21.125 13.2188V14.6625C21.5485 14.7489 21.9291 14.9791 22.2025 15.3139C22.4758 15.6488 22.6251 16.0678 22.625 16.5ZM6.125 13.125V14.625H18.875V13.2188C18.875 9.67781 16.0372 6.77625 12.5488 6.75H12.5C10.8092 6.75 9.18774 7.42165 7.99219 8.61719C6.79665 9.81274 6.125 11.4342 6.125 13.125ZM20.375 16.875H4.625V18.375H20.375V16.875ZM13.2875 10.62C13.691 10.7468 14.0578 10.9691 14.3568 11.2682C14.6559 11.5672 14.8782 11.934 15.005 12.3375C15.0945 12.6222 15.2934 12.8597 15.5581 12.9977C15.8227 13.1357 16.1312 13.1629 16.4159 13.0734C16.7006 12.9839 16.9381 12.785 17.0761 12.5204C17.2141 12.2558 17.2414 11.9472 17.1519 11.6625C16.9164 10.9139 16.5036 10.2331 15.9487 9.6782C15.3937 9.12326 14.713 8.7105 13.9644 8.475C13.6797 8.38549 13.3711 8.41274 13.1065 8.55075C12.8419 8.68877 12.6429 8.92624 12.5534 9.21094C12.4639 9.49563 12.4912 9.80422 12.6292 10.0688C12.7672 10.3334 13.0047 10.5324 13.2894 10.6219L13.2875 10.62Z" fill="#444444"/>
</svg>
