<svg width="186" height="13" viewBox="0 0 186 13" fill="none" xmlns="http://www.w3.org/2000/svg">
<mask id="mask0_364_1948" style="mask-type:luminance" maskUnits="userSpaceOnUse" x="0" y="0" width="186" height="13">
<path d="M186 0H0V12.7081H186V0Z" fill="white"/>
</mask>
<g mask="url(#mask0_364_1948)">
<path d="M20.7493 9.36164C22.7375 9.36164 23.808 8.26446 23.808 6.22696V3.13466C23.808 1.09713 22.7375 0 20.7493 0H0V12.7081H2.81067V9.36164H20.7493ZM20.9973 3.3041V6.05752C20.9973 6.38793 20.8237 6.56584 20.5013 6.56584H2.81067V2.79578H20.5013C20.8237 2.79578 20.9973 2.97369 20.9973 3.3041ZM30.4213 12.7081C28.4332 12.7081 27.3627 11.611 27.3627 9.57339V3.13466C27.3627 1.09713 28.4332 0 30.4213 0H47.6573C49.6455 0 50.716 1.09713 50.716 3.13466V9.57339C50.716 11.611 49.6455 12.7081 47.6573 12.7081H30.4213ZM47.4093 9.9123C47.7317 9.9123 47.9053 9.73439 47.9053 9.40398V3.3041C47.9053 2.97369 47.7317 2.79578 47.4093 2.79578H30.6693C30.3469 2.79578 30.1733 2.97369 30.1733 3.3041V9.40398C30.1733 9.73439 30.3469 9.9123 30.6693 9.9123H47.4093ZM75.3093 8.38733C76.9563 9.09715 78.1138 10.7637 78.12 12.7081H75.3093C75.3093 10.4206 74.276 9.36164 72.044 9.36164H57.1227V12.7081H54.312V0H75.0613C77.0495 0 78.12 1.09713 78.12 3.13466V5.2586C78.12 7.20971 77.1383 8.29837 75.3093 8.38733ZM74.8133 6.56584C75.1357 6.56584 75.3093 6.38793 75.3093 6.05752V3.3041C75.3093 2.97369 75.1357 2.79578 74.8133 2.79578H57.1227V6.56584H74.8133ZM81.5091 3.13466C81.5091 1.09713 82.5801 0 84.568 0H104.904V2.37218H84.816C84.4936 2.37218 84.32 2.55009 84.32 2.8805V4.65963C84.32 4.99004 84.4936 5.16795 84.816 5.16795H102.259C104.247 5.16795 105.317 6.26508 105.317 8.30258V9.57339C105.317 11.611 104.247 12.7081 102.259 12.7081H81.9229V10.3359H102.011C102.333 10.3359 102.507 10.158 102.507 9.82755V8.04842C102.507 7.71803 102.333 7.54012 102.011 7.54012H84.568C82.5801 7.54012 81.5091 6.44299 81.5091 4.40547V3.13466ZM108.831 3.13466C108.831 1.09713 109.901 0 111.889 0H131.729V2.79578H112.137C111.815 2.79578 111.641 2.97369 111.641 3.3041V9.40398C111.641 9.73439 111.815 9.9123 112.137 9.9123H131.729V12.7081H111.889C109.901 12.7081 108.831 11.611 108.831 9.57339V3.13466ZM157.769 0V12.7081H154.959V7.75193H138.136V12.7081H135.325V0H138.136V4.95615H154.959V0H157.769ZM164.217 2.37218V5.16795H186V7.54012H164.217V10.3359H186V12.7081H161.407V0H186V2.37218H164.217Z" fill="#1E1E1E"/>
</g>
</svg>
