<svg width="27" height="27" viewBox="0 0 27 27" fill="none" xmlns="http://www.w3.org/2000/svg">
<g id="Headlights">
<path id="Vector" d="M17.2969 8.4375C17.2969 8.10184 17.4302 7.77992 17.6676 7.54257C17.9049 7.30522 18.2268 7.17188 18.5625 7.17188H25.3125C25.6482 7.17188 25.9701 7.30522 26.2074 7.54257C26.4448 7.77992 26.5781 8.10184 26.5781 8.4375C26.5781 8.77316 26.4448 9.09508 26.2074 9.33243C25.9701 9.56978 25.6482 9.70312 25.3125 9.70312H18.5625C18.2268 9.70312 17.9049 9.56978 17.6676 9.33243C17.4302 9.09508 17.2969 8.77316 17.2969 8.4375ZM25.3125 17.2969H18.5625C18.2268 17.2969 17.9049 17.4302 17.6676 17.6676C17.4302 17.9049 17.2969 18.2268 17.2969 18.5625C17.2969 18.8982 17.4302 19.2201 17.6676 19.4574C17.9049 19.6948 18.2268 19.8281 18.5625 19.8281H25.3125C25.6482 19.8281 25.9701 19.6948 26.2074 19.4574C26.4448 19.2201 26.5781 18.8982 26.5781 18.5625C26.5781 18.2268 26.4448 17.9049 26.2074 17.6676C25.9701 17.4302 25.6482 17.2969 25.3125 17.2969ZM25.3125 12.2344H18.5625C18.2268 12.2344 17.9049 12.3677 17.6676 12.6051C17.4302 12.8424 17.2969 13.1643 17.2969 13.5C17.2969 13.8357 17.4302 14.1576 17.6676 14.3949C17.9049 14.6323 18.2268 14.7656 18.5625 14.7656H25.3125C25.6482 14.7656 25.9701 14.6323 26.2074 14.3949C26.4448 14.1576 26.5781 13.8357 26.5781 13.5C26.5781 13.1643 26.4448 12.8424 26.2074 12.6051C25.9701 12.3677 25.6482 12.2344 25.3125 12.2344ZM15.6094 6.75V20.25C15.6094 20.8094 15.3871 21.346 14.9916 21.7416C14.596 22.1371 14.0594 22.3594 13.5 22.3594H9.28126C8.11221 22.3594 6.95472 22.1281 5.8755 21.6787C4.79628 21.2293 3.81666 20.5708 2.99312 19.7411C2.16958 18.9114 1.51839 17.9268 1.07709 16.8443C0.635795 15.7617 0.413112 14.6026 0.42188 13.4336C0.457739 8.58516 4.47504 4.64062 9.37618 4.64062H13.5C14.0594 4.64063 14.596 4.86286 14.9916 5.25845C15.3871 5.65403 15.6094 6.19056 15.6094 6.75ZM13.0781 7.17188H9.37618C5.8609 7.17188 2.9795 9.98895 2.95313 13.4515C2.94673 14.2866 3.10568 15.1147 3.42083 15.8881C3.73598 16.6614 4.20109 17.3648 4.78935 17.9575C5.37761 18.5503 6.07738 19.0208 6.84833 19.3418C7.61927 19.6629 8.44614 19.8281 9.28126 19.8281H13.0781V7.17188Z" fill="#444444"/>
</g>
</svg>
