<svg width="21" height="21" viewBox="0 0 21 21" fill="none" xmlns="http://www.w3.org/2000/svg">
<path id="Vector" d="M16.5 5.98183C16.5 6.2785 16.412 6.56851 16.2472 6.81518C16.0824 7.06186 15.8481 7.25411 15.574 7.36765C15.2999 7.48118 14.9983 7.51088 14.7074 7.453C14.4164 7.39513 14.1491 7.25227 13.9393 7.04249C13.7296 6.83271 13.5867 6.56543 13.5288 6.27446C13.471 5.98349 13.5007 5.68189 13.6142 5.4078C13.7277 5.13371 13.92 4.89944 14.1667 4.73462C14.4133 4.5698 14.7033 4.48183 15 4.48183C15.3978 4.48183 15.7794 4.63986 16.0607 4.92117C16.342 5.20247 16.5 5.584 16.5 5.98183ZM21 8.1137C20.9264 10.1533 20.0666 12.0854 18.6007 13.5054C17.1347 14.9254 15.1762 15.7232 13.1353 15.7318H13.125C12.3746 15.733 11.6279 15.6263 10.9078 15.415L10.1709 16.1528C10.0664 16.2572 9.94228 16.34 9.80571 16.3965C9.66914 16.4529 9.52279 16.4819 9.37501 16.4818H8.25001V17.6068C8.25001 17.9052 8.13148 18.1913 7.9205 18.4023C7.70952 18.6133 7.42338 18.7318 7.12501 18.7318H6.00001V19.8568C6.00001 20.1552 5.88148 20.4413 5.6705 20.6523C5.45952 20.8633 5.17338 20.9818 4.87501 20.9818H1.87501C1.37773 20.9818 0.900812 20.7843 0.549182 20.4327C0.197551 20.081 6.82682e-06 19.6041 6.82682e-06 19.1068V16.4171C-0.000660167 16.1708 0.0475541 15.9268 0.141857 15.6993C0.236159 15.4717 0.374676 15.2651 0.549382 15.0915L5.56688 10.074C5.24909 8.98122 5.17193 7.83252 5.34072 6.70704C5.50951 5.58156 5.92024 4.50603 6.54461 3.55454C7.16899 2.60304 7.99219 1.79817 8.9575 1.19538C9.92282 0.592581 11.0073 0.206175 12.1363 0.0627699C13.2653 -0.080635 14.412 0.022369 15.4973 0.364688C16.5827 0.707007 17.581 1.28051 18.4234 2.04569C19.2658 2.81088 19.9324 3.74956 20.3772 4.79711C20.822 5.84465 21.0345 6.97616 21 8.1137ZM17.1028 3.87901C16.5601 3.33143 15.9098 2.90233 15.1928 2.61881C14.4759 2.3353 13.7079 2.20353 12.9375 2.23183C9.93751 2.32558 7.50001 4.84651 7.50001 7.84651C7.49768 8.55869 7.63132 9.26476 7.89376 9.92683C7.98221 10.1335 8.00672 10.362 7.96411 10.5827C7.92149 10.8034 7.81372 11.0064 7.65469 11.1653L2.25001 16.5756V18.7318H3.75001V17.6068C3.75001 17.3085 3.86853 17.0223 4.07951 16.8113C4.29049 16.6004 4.57664 16.4818 4.87501 16.4818H6.00001V15.3568C6.00001 15.0585 6.11853 14.7723 6.32951 14.5613C6.54049 14.3504 6.82664 14.2318 7.12501 14.2318H8.90626L9.81094 13.3271C9.96993 13.1679 10.173 13.06 10.3939 13.0174C10.6149 12.9748 10.8435 12.9994 11.0503 13.0881C11.7106 13.35 12.4147 13.4837 13.125 13.4818H13.1325C16.1325 13.4818 18.6516 11.0378 18.7472 8.04433C18.7755 7.27414 18.644 6.50644 18.3609 5.78957C18.0779 5.0727 17.6496 4.4222 17.1028 3.87901Z" fill="#444444"/>
</svg>
