<svg width="11" height="18" viewBox="0 0 11 18" fill="none" xmlns="http://www.w3.org/2000/svg">
<path d="M10.75 8.94922C10.75 8.61719 10.623 8.33398 10.3691 8.08008L2.75195 0.628906C2.53711 0.414062 2.27344 0.306641 1.96094 0.306641C1.32617 0.306641 0.818359 0.794922 0.818359 1.42969C0.818359 1.74219 0.945312 2.02539 1.16016 2.25L8.03516 8.94922L1.16016 15.6484C0.955078 15.8633 0.818359 16.1465 0.818359 16.459C0.818359 17.1035 1.32617 17.5918 1.96094 17.5918C2.27344 17.5918 2.53711 17.4844 2.75195 17.2695L10.3691 9.81836C10.6328 9.56445 10.75 9.28125 10.75 8.94922Z" fill="#F28100"/>
</svg>
